/* XPM */
static char * play_xpm[] = {
"16 16 4 1",
" 	c None",
".	c #000000",
"+	c #020202",
"@	c #040404",
"..              ",
".+..            ",
"......          ",
"........        ",
"..........      ",
"............    ",
"............@.  ",
"................",
"................",
"............@.  ",
"............    ",
"..........      ",
"........        ",
"......          ",
".+..            ",
"..              "};
